# xmcd
#
# Track frame offsets: 
#        150
#        23108
#        43320
#        80528
#        96320
#        119056
#        152933
#        176125
#        194053
#        218169
#        246060
#        262731
#
# Disc length: 4040 seconds
#
# Revision: 2
# Processed by: cddbd v1.4PL0 Copyright (c) Steve Scherf et al.
# Submitted via: ExactAudioCopy v0.90b4
#
DISCID=af0fc60c
DTITLE=Harmonica Shah - Tell It to Your Landlord
DYEAR=2003
DGENRE=Blues
TTITLE0=Slow And Easy
TTITLE1=Welfare Shoes Blues
TTITLE2=Guilty
TTITLE3=Hey Detroit
TTITLE4=Mean And Evil
TTITLE5=I Heard You Was At The Casino
TTITLE6=Champagne (Cheap Bottle Of Wine)
TTITLE7=Baby, Scratch My Back
TTITLE8=Bumpity Bump
TTITLE9=Crying Michigan Tears
TTITLE10=Tell It To Your Landlord
TTITLE11=Someday
EXTD=YEAR: 2003
EXTT0=
EXTT1=
EXTT2=
EXTT3=
EXTT4=
EXTT5=
EXTT6=
EXTT7=
EXTT8=
EXTT9=
EXTT10=
EXTT11=
PLAYORDER=
